<?xml version="1.0" encoding="UTF-8" standalone="no"?>
<!DOCTYPE svg PUBLIC "-//W3C//DTD SVG 1.1//EN" "http://www.w3.org/Graphics/SVG/1.1/DTD/svg11.dtd">
<svg xmlns="http://www.w3.org/2000/svg" version="1.1" viewBox="0.00 0.00 326.00 321.00">
<g stroke-width="2.00" fill="none" stroke-linecap="butt">
<path stroke="#666666" vector-effect="non-scaling-stroke" d="
  M 30.68 99.05
  Q 17.49 130.89 19.40 165.50
  Q 19.57 168.57 20.83 178.96
  C 21.15 181.61 21.92 184.28 22.42 187.01
  C 23.36 192.15 24.80 196.76 26.17 201.60
  Q 26.21 201.73 26.21 201.59
  C 26.13 198.66 24.84 196.00 24.44 193.45
  C 23.92 190.19 23.04 186.87 22.63 183.83
  C 18.62 154.31 21.09 125.88 32.92 99.49"
/>
<path stroke="#666666" vector-effect="non-scaling-stroke" d="
  M 55.41 68.61
  Q 47.03 78.72 40.80 90.20
  Q 40.78 90.24 40.79 90.30
  Q 40.80 90.33 40.80 90.36
  Q 40.83 90.47 40.89 90.37
  Q 47.80 79.21 56.59 69.40"
/>
<path stroke="#666666" vector-effect="non-scaling-stroke" d="
  M 87.44 47.05
  L 83.99 49.69
  Q 83.87 49.78 83.96 49.90
  L 83.96 49.90
  A 0.15 0.14 49.0 0 0 84.17 49.92
  Q 85.69 48.59 87.68 48.15"
/>
<path stroke="#666666" vector-effect="non-scaling-stroke" d="
  M 125.98 281.41
  L 128.43 282.21"
/>
<path stroke="#666666" vector-effect="non-scaling-stroke" d="
  M 139.48 284.42
  L 142.21 284.86"
/>
<path stroke="#666666" vector-effect="non-scaling-stroke" d="
  M 147.29 285.13
  Q 150.45 285.99 153.09 285.74"
/>
<path stroke="#666666" vector-effect="non-scaling-stroke" d="
  M 157.95 285.96
  L 160.36 286.39"
/>
<path stroke="#666666" vector-effect="non-scaling-stroke" d="
  M 158.45 287.04
  Q 156.87 286.84 155.51 287.13"
/>
<path stroke="#666666" vector-effect="non-scaling-stroke" d="
  M 45.17 222.48
  C 25.21 187.74 21.63 147.09 34.96 109.16
  Q 34.98 109.10 34.93 109.08
  Q 34.91 109.07 34.87 109.06
  Q 34.77 109.04 34.73 109.14
  Q 27.90 125.51 25.41 142.95
  C 23.86 153.79 25.38 163.20 26.55 174.99
  Q 26.90 178.55 27.93 181.05
  Q 29.39 184.60 29.62 185.60
  C 32.74 199.08 36.98 211.62 43.65 224.03"
/>
<path stroke="#666666" vector-effect="non-scaling-stroke" d="
  M 201.24 296.94
  L 185.07 300.30
  Q 184.20 300.48 185.08 300.38
  L 201.55 298.46"
/>
<path stroke="#666666" vector-effect="non-scaling-stroke" d="
  M 300.91 221.75
  Q 300.06 222.51 299.74 223.97"
/>
<path stroke="#666666" vector-effect="non-scaling-stroke" d="
  M 175.76 309.17
  Q 166.49 309.92 156.18 309.30
  Q 133.95 307.96 113.67 300.13
  Q 111.94 299.46 110.32 299.27"
/>
<path stroke="#666666" vector-effect="non-scaling-stroke" d="
  M 110.32 299.27
  L 102.69 295.86
  Q 101.52 295.33 102.61 296.01
  Q 106.11 298.18 110.32 299.27"
/>
<path stroke="#666666" vector-effect="non-scaling-stroke" d="
  M 110.32 299.27
  Q 111.69 300.13 115.72 301.49
  Q 126.36 305.08 130.01 305.99
  Q 142.82 309.15 155.98 310.39"
/>
<path stroke="#666666" vector-effect="non-scaling-stroke" d="
  M 121.21 305.80
  L 110.30 301.98"
/>
<path stroke="#666666" vector-effect="non-scaling-stroke" d="
  M 43.50 253.25
  L 35.82 242.85
  Q 35.56 242.50 35.15 242.38
  Q 34.16 242.09 34.08 241.08
  Q 34.05 240.61 33.77 240.24
  L 31.23 236.85"
/>
<path stroke="#666666" vector-effect="non-scaling-stroke" d="
  M 14.85 200.66
  Q 15.96 199.87 15.68 198.57
  Q 15.59 198.11 15.37 198.52
  Q 14.95 199.31 14.40 199.57"
/>
<path stroke="#666666" vector-effect="non-scaling-stroke" d="
  M 9.00 160.77
  Q 9.13 162.50 9.15 164.27
  C 9.20 167.86 9.83 171.57 10.14 175.18
  C 10.31 177.13 11.49 178.92 10.97 181.32
  A 1.70 1.66 -50.5 0 0 11.05 182.27
  Q 11.98 184.54 12.09 187.01
  Q 12.12 187.55 12.67 188.07
  Q 12.85 188.24 12.91 188.00
  Q 13.44 185.75 12.20 183.99
  Q 11.89 183.54 11.89 183.00
  Q 11.90 180.32 11.84 177.69
  Q 11.83 177.39 11.93 177.39
  Q 12.07 177.38 12.40 177.48"
/>
<path stroke="#666666" vector-effect="non-scaling-stroke" d="
  M 12.99 182.59
  Q 13.65 184.55 13.90 186.67
  C 14.08 188.15 14.76 189.38 14.94 190.89
  C 15.34 194.39 16.56 197.61 17.35 201.03
  C 17.67 202.43 18.41 203.85 18.72 205.33
  C 19.24 207.79 20.54 209.56 20.86 212.07
  Q 20.92 212.56 21.20 212.95
  C 22.54 214.87 23.02 217.36 24.03 218.89
  A 0.77 0.77 0.0 0 1 24.11 219.57
  L 23.88 220.22
  Q 23.74 220.63 24.01 220.29
  Q 24.32 219.91 24.41 219.42
  Q 24.47 219.05 24.29 218.60
  Q 18.80 205.44 15.85 191.47
  Q 15.06 187.69 14.46 184.08
  A 0.47 0.46 78.7 0 1 14.81 183.55
  L 15.07 183.49
  Q 15.73 183.32 15.95 183.96
  Q 16.78 186.39 17.17 189.11
  Q 17.17 189.16 17.17 189.11
  Q 17.13 185.94 16.18 182.71"
/>
<path stroke="#666666" vector-effect="non-scaling-stroke" d="
  M 120.08 306.88
  Q 116.34 304.75 111.81 304.12"
/>
<path stroke="#666666" vector-effect="non-scaling-stroke" d="
  M 40.52 251.59
  Q 41.08 250.09 38.66 248.68"
/>
<path stroke="#666666" vector-effect="non-scaling-stroke" d="
  M 37.61 247.40
  Q 37.84 245.40 35.95 244.61"
/>
<path stroke="#666666" vector-effect="non-scaling-stroke" d="
  M 9.99 163.32
  Q 10.67 169.78 11.12 176.24
  Q 11.19 177.30 11.99 177.06"
/>
<path stroke="#666666" vector-effect="non-scaling-stroke" d="
  M 13.41 189.76
  C 12.39 192.04 14.05 193.45 14.23 195.49
  A 0.26 0.26 0.0 0 0 14.50 195.73
  L 14.80 195.72
  Q 14.93 195.72 14.92 195.59
  L 14.75 194.10
  Q 14.71 193.69 14.42 193.39
  C 13.35 192.29 13.78 191.17 13.64 189.80
  Q 13.59 189.35 13.41 189.76"
/>
<path stroke="#666666" vector-effect="non-scaling-stroke" d="
  M 18.96 195.74
  Q 18.97 194.27 18.30 192.95
  Q 17.94 192.26 18.07 193.03
  Q 18.18 193.74 18.52 194.35
  Q 18.75 194.78 18.78 195.27
  Q 18.99 198.54 20.60 201.41
  A 0.05 0.05 0.0 0 0 20.69 201.37
  L 19.12 196.74
  Q 18.95 196.26 18.96 195.74"
/>
<path stroke="#666666" vector-effect="non-scaling-stroke" d="
  M 22.37 207.06
  Q 22.37 207.09 22.37 207.12
  Q 22.37 207.13 22.38 207.13
  Q 22.38 207.13 22.38 207.13
  Q 22.41 207.12 22.40 207.11
  C 22.09 205.12 20.97 203.97 20.92 201.94
  Q 20.91 201.75 20.81 201.86
  Q 20.76 201.92 20.75 202.01
  Q 20.71 204.73 22.33 206.95
  Q 22.37 207.00 22.37 207.06"
/>
<path stroke="#666666" vector-effect="non-scaling-stroke" d="
  M 24.54 212.96
  Q 24.49 213.49 24.66 213.90
  C 30.66 228.70 38.11 242.33 48.39 254.61
  Q 55.06 262.56 65.64 271.86
  Q 65.74 271.94 65.82 271.84
  L 65.83 271.84
  Q 65.91 271.74 65.82 271.66
  C 47.12 255.11 34.04 235.70 24.54 212.96"
/>
<path stroke="#666666" vector-effect="non-scaling-stroke" d="
  M 24.54 212.96
  Q 24.13 210.86 22.99 208.97
  Q 22.77 208.61 22.78 209.03
  C 22.80 210.08 23.82 211.79 24.54 212.96"
/>
<path stroke="#666666" vector-effect="non-scaling-stroke" d="
  M 190.00 302.66
  Q 190.30 302.63 190.61 302.63
  Q 190.63 302.63 190.63 302.63
  Q 190.63 302.64 190.63 302.66
  Q 190.63 302.69 190.60 302.69
  C 179.96 302.72 170.99 303.85 158.90 303.11
  C 135.07 301.65 111.84 294.44 90.95 282.89
  A 0.03 0.02 -58.3 0 0 90.93 282.90
  L 90.79 283.16
  Q 90.69 283.34 90.86 283.44
  Q 127.64 305.01 170.18 304.39
  C 175.96 304.30 182.94 303.25 189.36 302.91
  Q 189.58 302.90 189.75 302.76
  Q 189.86 302.67 190.00 302.66"
/>
</g>
<path fill="#cccccc" d="
  M 30.68 99.05
  Q 17.49 130.89 19.40 165.50
  Q 19.57 168.57 20.83 178.96
  C 21.15 181.61 21.92 184.28 22.42 187.01
  C 23.36 192.15 24.80 196.76 26.17 201.60
  Q 26.21 201.73 26.21 201.59
  C 26.13 198.66 24.84 196.00 24.44 193.45
  C 23.92 190.19 23.04 186.87 22.63 183.83
  C 18.62 154.31 21.09 125.88 32.92 99.49
  C 50.62 59.52 84.85 30.10 126.95 18.24
  Q 128.16 17.90 128.86 18.94
  L 129.12 19.34
  A 0.74 0.74 0.0 0 1 128.71 20.46
  Q 100.40 28.61 77.00 47.11
  Q 76.66 47.38 74.47 49.39
  C 73.32 50.44 71.95 51.22 70.92 52.23
  Q 65.12 57.90 59.45 63.70
  C 58.04 65.15 56.81 67.01 55.41 68.61
  Q 47.03 78.72 40.80 90.20
  Q 40.78 90.24 40.79 90.30
  Q 40.80 90.33 40.80 90.36
  Q 40.83 90.47 40.89 90.37
  Q 47.80 79.21 56.59 69.40
  C 62.66 63.14 69.09 56.40 75.42 51.19
  Q 103.83 27.84 141.36 20.62
  C 142.91 20.32 144.40 20.27 145.52 20.03
  Q 150.57 18.91 155.76 19.13
  Q 156.20 19.15 157.13 18.55
  Q 157.53 18.29 158.00 18.29
  Q 164.06 18.22 170.09 18.24
  Q 171.55 18.24 175.36 18.94
  C 177.70 19.36 180.42 19.02 182.53 19.25
  Q 185.38 19.57 188.22 19.91
  C 191.29 20.29 194.70 21.20 198.25 21.86
  Q 210.21 24.07 225.09 30.64
  C 263.86 47.76 292.84 79.47 304.67 120.05
  C 305.24 121.98 305.32 124.17 305.24 125.94
  Q 305.06 130.07 303.52 126.23
  Q 302.31 123.20 300.78 118.85
  Q 292.58 95.44 277.32 76.14
  C 271.67 68.99 263.90 60.94 256.58 54.95
  Q 228.54 31.97 192.74 24.76
  C 191.53 24.52 189.57 24.72 188.05 23.95
  A 1.83 1.83 0.0 0 0 187.12 23.76
  Q 185.72 23.86 184.37 23.55
  C 182.32 23.07 180.62 23.31 178.67 22.92
  Q 176.88 22.56 175.79 22.56
  C 168.63 22.54 160.85 21.98 153.79 23.02
  C 151.75 23.32 149.72 23.04 147.76 23.40
  Q 144.87 23.92 141.97 24.31
  Q 139.07 24.71 136.27 25.51
  Q 132.62 26.56 130.67 27.02
  Q 126.78 27.95 123.04 29.34
  C 120.55 30.26 118.40 32.33 115.75 33.25
  Q 100.27 38.65 87.44 47.05
  L 83.99 49.69
  Q 83.87 49.78 83.96 49.90
  L 83.96 49.90
  A 0.15 0.14 49.0 0 0 84.17 49.92
  Q 85.69 48.59 87.68 48.15
  Q 87.74 49.07 87.40 49.42
  C 80.83 56.25 72.45 61.41 66.73 69.09
  C 65.37 70.92 63.66 72.30 62.31 74.14
  Q 61.58 75.15 60.75 76.07
  C 59.51 77.45 58.77 79.17 57.47 80.56
  Q 56.31 81.79 55.65 82.99
  C 54.46 85.14 52.69 87.22 51.59 89.06
  Q 37.80 112.18 31.80 138.45
  Q 31.62 139.22 31.53 141.59
  C 31.47 143.19 30.80 144.33 30.78 145.83
  Q 30.57 156.66 30.81 167.47
  Q 30.83 167.97 31.06 168.40
  C 32.28 170.70 31.31 175.25 32.27 178.17
  Q 32.69 179.45 32.77 179.93
  C 39.74 218.31 63.36 250.53 96.87 269.88
  Q 108.48 276.58 121.34 280.21
  C 122.56 280.56 124.21 281.66 125.98 281.41
  L 128.43 282.21
  Q 129.21 282.77 130.25 282.84
  Q 134.13 283.12 137.79 284.42
  Q 138.71 284.75 139.48 284.42
  L 142.21 284.86
  Q 144.31 285.62 147.29 285.13
  Q 150.45 285.99 153.09 285.74
  Q 155.09 286.40 157.95 285.96
  L 160.36 286.39
  Q 159.98 287.10 158.45 287.04
  Q 156.87 286.84 155.51 287.13
  C 152.51 286.77 149.27 286.99 146.49 286.72
  Q 142.97 286.37 139.42 286.08
  Q 138.58 286.01 136.22 285.23
  C 134.74 284.74 133.10 285.07 131.63 284.72
  C 120.14 282.02 112.41 279.69 102.65 275.17
  C 78.46 263.95 58.71 245.47 45.17 222.48
  C 25.21 187.74 21.63 147.09 34.96 109.16
  Q 34.98 109.10 34.93 109.08
  Q 34.91 109.07 34.87 109.06
  Q 34.77 109.04 34.73 109.14
  Q 27.90 125.51 25.41 142.95
  C 23.86 153.79 25.38 163.20 26.55 174.99
  Q 26.90 178.55 27.93 181.05
  Q 29.39 184.60 29.62 185.60
  C 32.74 199.08 36.98 211.62 43.65 224.03
  C 57.60 250.32 81.51 271.80 109.03 283.93
  Q 112.99 285.67 123.03 289.29
  C 125.32 290.12 128.24 290.69 131.09 291.63
  Q 136.82 293.53 146.37 294.39
  C 147.46 294.49 148.14 295.30 149.17 295.21
  C 152.36 294.95 155.81 295.65 158.45 295.68
  Q 165.72 295.77 172.99 295.73
  C 175.42 295.71 178.26 295.03 181.00 295.14
  C 182.08 295.19 182.81 294.66 183.69 294.55
  C 227.32 288.80 264.99 262.61 286.33 224.36
  C 286.84 223.46 286.92 222.63 287.53 221.79
  Q 288.55 220.39 288.99 218.67
  Q 289.10 218.20 289.41 217.82
  Q 290.86 216.03 291.15 213.70
  Q 291.22 213.08 291.78 212.80
  L 292.13 212.62
  A 0.77 0.77 0.0 0 1 293.19 213.58
  Q 285.99 232.62 274.42 247.95
  Q 272.16 250.93 269.97 253.97
  C 268.89 255.47 267.30 256.66 266.13 258.22
  C 264.26 260.69 262.34 262.84 260.04 264.57
  C 257.49 266.48 255.13 269.09 253.00 270.82
  C 236.84 283.96 219.69 291.76 201.24 296.94
  L 185.07 300.30
  Q 184.20 300.48 185.08 300.38
  L 201.55 298.46
  Q 216.21 296.01 220.74 294.14
  Q 250.04 281.99 272.07 259.31
  Q 272.87 258.49 275.34 255.61
  C 276.79 253.91 278.50 252.33 279.82 250.73
  Q 289.43 239.05 292.98 232.75
  Q 295.52 228.26 297.09 226.23
  A 2.45 2.31 70.9 0 0 297.54 225.23
  Q 298.07 222.62 300.09 220.85
  A 0.46 0.45 -42.7 0 1 300.72 220.87
  Q 301.03 221.19 300.91 221.75
  Q 300.06 222.51 299.74 223.97
  Q 291.61 241.48 279.46 256.42
  C 278.95 257.05 277.79 257.71 277.38 258.88
  Q 277.22 259.36 276.84 259.71
  C 273.65 262.58 271.27 265.86 267.99 268.66
  Q 265.53 270.76 263.33 273.14
  C 262.34 274.21 260.88 274.93 259.79 276.03
  C 256.91 278.95 252.74 281.61 249.38 284.01
  C 245.72 286.60 241.44 288.86 237.44 291.27
  C 232.98 293.96 228.65 295.72 224.00 297.72
  Q 208.70 304.33 192.28 307.13
  C 191.49 307.26 190.86 307.56 189.74 307.72
  Q 182.79 308.68 175.76 309.17
  Q 166.49 309.92 156.18 309.30
  Q 133.95 307.96 113.67 300.13
  Q 111.94 299.46 110.32 299.27
  L 102.69 295.86
  Q 101.52 295.33 102.61 296.01
  Q 106.11 298.18 110.32 299.27
  Q 111.69 300.13 115.72 301.49
  Q 126.36 305.08 130.01 305.99
  Q 142.82 309.15 155.98 310.39
  L 155.63 311.76
  Q 155.49 312.31 154.93 312.27
  Q 150.53 312.02 146.20 311.47
  C 145.48 311.37 145.29 311.07 144.49 311.02
  Q 140.68 310.77 136.97 309.90
  Q 129.05 308.05 121.21 305.80
  L 110.30 301.98
  C 87.59 293.18 66.18 279.15 50.13 260.78
  Q 46.84 257.00 43.50 253.25
  L 35.82 242.85
  Q 35.56 242.50 35.15 242.38
  Q 34.16 242.09 34.08 241.08
  Q 34.05 240.61 33.77 240.24
  L 31.23 236.85
  L 25.95 227.19
  Q 25.74 226.81 25.44 226.49
  Q 24.02 225.01 24.15 222.90
  Q 24.16 222.62 23.88 222.62
  L 23.53 222.62
  Q 23.35 222.62 23.28 222.45
  L 14.85 200.66
  Q 15.96 199.87 15.68 198.57
  Q 15.59 198.11 15.37 198.52
  Q 14.95 199.31 14.40 199.57
  C 13.69 196.01 12.43 192.44 11.74 189.10
  Q 11.13 186.09 10.39 183.10
  C 9.67 180.14 9.59 176.71 8.77 173.54
  C 8.30 171.74 8.66 170.06 8.27 168.25
  C 7.73 165.80 7.80 164.23 7.80 161.97
  Q 7.80 161.46 8.19 161.15
  Q 8.51 160.89 9.00 160.77
  Q 9.13 162.50 9.15 164.27
  C 9.20 167.86 9.83 171.57 10.14 175.18
  C 10.31 177.13 11.49 178.92 10.97 181.32
  A 1.70 1.66 -50.5 0 0 11.05 182.27
  Q 11.98 184.54 12.09 187.01
  Q 12.12 187.55 12.67 188.07
  Q 12.85 188.24 12.91 188.00
  Q 13.44 185.75 12.20 183.99
  Q 11.89 183.54 11.89 183.00
  Q 11.90 180.32 11.84 177.69
  Q 11.83 177.39 11.93 177.39
  Q 12.07 177.38 12.40 177.48
  L 12.99 182.59
  Q 13.65 184.55 13.90 186.67
  C 14.08 188.15 14.76 189.38 14.94 190.89
  C 15.34 194.39 16.56 197.61 17.35 201.03
  C 17.67 202.43 18.41 203.85 18.72 205.33
  C 19.24 207.79 20.54 209.56 20.86 212.07
  Q 20.92 212.56 21.20 212.95
  C 22.54 214.87 23.02 217.36 24.03 218.89
  A 0.77 0.77 0.0 0 1 24.11 219.57
  L 23.88 220.22
  Q 23.74 220.63 24.01 220.29
  Q 24.32 219.91 24.41 219.42
  Q 24.47 219.05 24.29 218.60
  Q 18.80 205.44 15.85 191.47
  Q 15.06 187.69 14.46 184.08
  A 0.47 0.46 78.7 0 1 14.81 183.55
  L 15.07 183.49
  Q 15.73 183.32 15.95 183.96
  Q 16.78 186.39 17.17 189.11
  Q 17.17 189.16 17.17 189.11
  Q 17.13 185.94 16.18 182.71
  Q 15.61 177.55 14.94 172.39
  C 13.68 162.63 14.21 152.50 14.31 142.69
  Q 14.32 142.31 14.48 141.83
  C 15.16 139.74 15.05 137.80 15.26 135.65
  Q 15.54 132.82 16.08 130.37
  Q 17.05 125.90 18.08 121.43
  Q 22.13 103.86 30.15 87.79
  C 32.27 83.53 35.24 78.20 38.07 73.91
  Q 45.86 62.10 50.26 57.49
  C 52.37 55.29 54.40 52.70 55.90 51.16
  Q 72.97 33.70 94.51 22.06
  Q 102.35 17.83 110.77 14.89
  Q 114.49 13.60 117.10 13.84
  Q 119.75 14.09 117.47 15.45
  C 115.11 16.86 112.82 18.32 110.22 19.45
  Q 100.45 23.69 95.91 26.42
  Q 92.83 28.28 90.95 29.10
  Q 90.61 29.24 90.42 29.55
  Q 90.29 29.74 90.11 29.85
  Q 81.87 34.83 78.00 37.99
  C 75.64 39.92 73.48 41.37 71.32 43.37
  C 65.75 48.54 60.18 53.39 53.56 61.30
  Q 39.26 78.40 30.68 99.05
  Z
  M 13.41 189.76
  C 12.39 192.04 14.05 193.45 14.23 195.49
  A 0.26 0.26 0.0 0 0 14.50 195.73
  L 14.80 195.72
  Q 14.93 195.72 14.92 195.59
  L 14.75 194.10
  Q 14.71 193.69 14.42 193.39
  C 13.35 192.29 13.78 191.17 13.64 189.80
  Q 13.59 189.35 13.41 189.76
  Z
  M 18.96 195.74
  Q 18.97 194.27 18.30 192.95
  Q 17.94 192.26 18.07 193.03
  Q 18.18 193.74 18.52 194.35
  Q 18.75 194.78 18.78 195.27
  Q 18.99 198.54 20.60 201.41
  A 0.05 0.05 0.0 0 0 20.69 201.37
  L 19.12 196.74
  Q 18.95 196.26 18.96 195.74
  Z
  M 22.37 207.06
  Q 22.37 207.09 22.37 207.12
  Q 22.37 207.13 22.38 207.13
  Q 22.38 207.13 22.38 207.13
  Q 22.41 207.12 22.40 207.11
  C 22.09 205.12 20.97 203.97 20.92 201.94
  Q 20.91 201.75 20.81 201.86
  Q 20.76 201.92 20.75 202.01
  Q 20.71 204.73 22.33 206.95
  Q 22.37 207.00 22.37 207.06
  Z
  M 24.54 212.96
  Q 24.49 213.49 24.66 213.90
  C 30.66 228.70 38.11 242.33 48.39 254.61
  Q 55.06 262.56 65.64 271.86
  Q 65.74 271.94 65.82 271.84
  L 65.83 271.84
  Q 65.91 271.74 65.82 271.66
  C 47.12 255.11 34.04 235.70 24.54 212.96
  Q 24.13 210.86 22.99 208.97
  Q 22.77 208.61 22.78 209.03
  C 22.80 210.08 23.82 211.79 24.54 212.96
  Z
  M 190.00 302.66
  Q 190.30 302.63 190.61 302.63
  Q 190.63 302.63 190.63 302.63
  Q 190.63 302.64 190.63 302.66
  Q 190.63 302.69 190.60 302.69
  C 179.96 302.72 170.99 303.85 158.90 303.11
  C 135.07 301.65 111.84 294.44 90.95 282.89
  A 0.03 0.02 -58.3 0 0 90.93 282.90
  L 90.79 283.16
  Q 90.69 283.34 90.86 283.44
  Q 127.64 305.01 170.18 304.39
  C 175.96 304.30 182.94 303.25 189.36 302.91
  Q 189.58 302.90 189.75 302.76
  Q 189.86 302.67 190.00 302.66
  Z"
/>
<path fill="#000000" d="
  M 87.44 47.05
  Q 87.48 47.72 87.68 48.15
  Q 85.69 48.59 84.17 49.92
  A 0.15 0.14 49.0 0 1 83.96 49.90
  L 83.96 49.90
  Q 83.87 49.78 83.99 49.69
  L 87.44 47.05
  Z"
/>
<path fill="#000000" d="
  M 55.41 68.61
  Q 55.81 69.24 56.59 69.40
  Q 47.80 79.21 40.89 90.37
  Q 40.83 90.47 40.80 90.36
  Q 40.80 90.33 40.79 90.30
  Q 40.78 90.24 40.80 90.20
  Q 47.03 78.72 55.41 68.61
  Z"
/>
<path fill="#ffffff" d="
  M 165.27 184.24
  L 223.49 96.97
  Q 223.80 96.50 224.27 96.81
  L 231.75 101.78
  A 0.56 0.56 0.0 0 1 231.91 102.56
  Q 201.00 148.93 170.03 195.26
  C 166.18 201.03 161.82 198.45 158.70 193.87
  Q 127.34 147.88 94.61 99.73
  Q 94.32 99.30 94.75 99.02
  L 101.94 94.25
  A 1.08 1.08 0.0 0 1 103.43 94.55
  L 164.56 184.24
  A 0.43 0.43 0.0 0 0 165.27 184.24
  Z"
/>
<path fill="#000000" d="
  M 30.68 99.05
  Q 31.14 99.98 32.92 99.49
  C 21.09 125.88 18.62 154.31 22.63 183.83
  C 23.04 186.87 23.92 190.19 24.44 193.45
  C 24.84 196.00 26.13 198.66 26.21 201.59
  Q 26.21 201.73 26.17 201.60
  C 24.80 196.76 23.36 192.15 22.42 187.01
  C 21.92 184.28 21.15 181.61 20.83 178.96
  Q 19.57 168.57 19.40 165.50
  Q 17.49 130.89 30.68 99.05
  Z"
/>
<path fill="#ffffff" d="
  M 83.25 114.77
  Q 82.63 113.82 82.63 114.96
  L 82.63 227.07
  Q 82.63 227.53 82.17 227.53
  L 67.51 227.52
  Q 67.25 227.52 67.25 227.26
  L 67.25 104.24
  Q 67.25 103.73 67.76 103.73
  L 92.26 103.66
  A 1.35 1.33 73.1 0 1 93.38 104.27
  Q 128.70 157.61 164.17 211.02
  Q 164.78 211.95 165.33 211.95
  Q 166.06 211.94 166.43 211.39
  L 237.51 104.41
  A 1.58 1.58 0.0 0 1 238.82 103.71
  L 261.99 103.71
  Q 262.51 103.71 262.51 104.24
  L 262.51 227.00
  Q 262.51 227.52 261.99 227.52
  L 247.76 227.52
  Q 247.25 227.52 247.25 227.01
  L 247.24 117.98
  Q 247.24 115.31 245.78 117.54
  L 174.01 226.66
  A 1.92 1.92 0.0 0 1 172.40 227.53
  L 157.99 227.55
  A 0.98 0.98 0.0 0 1 157.17 227.11
  L 83.25 114.77
  Z"
/>
<path fill="#000000" d="
  M 45.17 222.48
  Q 44.06 223.07 43.65 224.03
  C 36.98 211.62 32.74 199.08 29.62 185.60
  Q 29.39 184.60 27.93 181.05
  Q 26.90 178.55 26.55 174.99
  C 25.38 163.20 23.86 153.79 25.41 142.95
  Q 27.90 125.51 34.73 109.14
  Q 34.77 109.04 34.87 109.06
  Q 34.91 109.07 34.93 109.08
  Q 34.98 109.10 34.96 109.16
  C 21.63 147.09 25.21 187.74 45.17 222.48
  Z"
/>
<path fill="#000000" d="
  M 9.99 163.32
  Q 10.67 169.78 11.12 176.24
  Q 11.19 177.30 11.99 177.06
  Q 12.03 177.25 12.40 177.48
  Q 12.07 177.38 11.93 177.39
  Q 11.83 177.39 11.84 177.69
  Q 11.90 180.32 11.89 183.00
  Q 11.89 183.54 12.20 183.99
  Q 13.44 185.75 12.91 188.00
  Q 12.85 188.24 12.67 188.07
  Q 12.12 187.55 12.09 187.01
  Q 11.98 184.54 11.05 182.27
  A 1.70 1.66 -50.5 0 1 10.97 181.32
  C 11.49 178.92 10.31 177.13 10.14 175.18
  C 9.83 171.57 9.20 167.86 9.15 164.27
  Q 9.13 162.50 9.00 160.77
  L 9.10 143.07
  A 0.43 0.42 -5.9 0 1 9.44 142.66
  L 9.76 142.59
  Q 10.05 142.53 10.05 142.83
  L 9.99 163.32
  Z"
/>
<rect fill="#ffffff" x="88.73" y="154.75" width="10.02" height="78.54" rx="0.26"/>
<rect fill="#ffffff" x="227.90" y="154.76" width="9.88" height="78.52" rx="0.33"/>
<path fill="#cccccc" d="
  M 9.99 163.32
  Q 10.61 163.41 10.94 163.65
  Q 11.22 163.85 11.25 164.47
  Q 11.48 170.74 11.99 177.06
  Q 11.19 177.30 11.12 176.24
  Q 10.67 169.78 9.99 163.32
  Z"
/>
<path fill="#000000" d="
  M 12.99 182.59
  L 16.18 182.71
  Q 17.13 185.94 17.17 189.11
  Q 17.17 189.16 17.17 189.11
  Q 16.78 186.39 15.95 183.96
  Q 15.73 183.32 15.07 183.49
  L 14.81 183.55
  A 0.47 0.46 78.7 0 0 14.46 184.08
  Q 15.06 187.69 15.85 191.47
  Q 18.80 205.44 24.29 218.60
  Q 24.47 219.05 24.41 219.42
  Q 24.32 219.91 24.01 220.29
  Q 23.74 220.63 23.88 220.22
  L 24.11 219.57
  A 0.77 0.77 0.0 0 0 24.03 218.89
  C 23.02 217.36 22.54 214.87 21.20 212.95
  Q 20.92 212.56 20.86 212.07
  C 20.54 209.56 19.24 207.79 18.72 205.33
  C 18.41 203.85 17.67 202.43 17.35 201.03
  C 16.56 197.61 15.34 194.39 14.94 190.89
  C 14.76 189.38 14.08 188.15 13.90 186.67
  Q 13.65 184.55 12.99 182.59
  Z"
/>
<path fill="#000000" d="
  M 14.23 195.49
  C 14.05 193.45 12.39 192.04 13.41 189.76
  Q 13.59 189.35 13.64 189.80
  C 13.78 191.17 13.35 192.29 14.42 193.39
  Q 14.71 193.69 14.75 194.10
  L 14.92 195.59
  Q 14.93 195.72 14.80 195.72
  L 14.50 195.73
  A 0.26 0.26 0.0 0 1 14.23 195.49
  Z"
/>
<path fill="#000000" d="
  M 19.12 196.74
  L 20.69 201.37
  A 0.05 0.05 0.0 0 1 20.60 201.41
  Q 18.99 198.54 18.78 195.27
  Q 18.75 194.78 18.52 194.35
  Q 18.18 193.74 18.07 193.03
  Q 17.94 192.26 18.30 192.95
  Q 18.97 194.27 18.96 195.74
  Q 18.95 196.26 19.12 196.74
  Z"
/>
<path fill="#000000" d="
  M 14.85 200.66
  L 14.40 199.57
  Q 14.95 199.31 15.37 198.52
  Q 15.59 198.11 15.68 198.57
  Q 15.96 199.87 14.85 200.66
  Z"
/>
<path fill="#000000" d="
  M 22.33 206.95
  Q 20.71 204.73 20.75 202.01
  Q 20.76 201.92 20.81 201.86
  Q 20.91 201.75 20.92 201.94
  C 20.97 203.97 22.09 205.12 22.40 207.11
  Q 22.41 207.12 22.38 207.13
  Q 22.38 207.13 22.38 207.13
  Q 22.37 207.13 22.37 207.12
  Q 22.37 207.09 22.37 207.06
  Q 22.37 207.00 22.33 206.95
  Z"
/>
<path fill="#000000" d="
  M 24.54 212.96
  C 23.82 211.79 22.80 210.08 22.78 209.03
  Q 22.77 208.61 22.99 208.97
  Q 24.13 210.86 24.54 212.96
  Z"
/>
<path fill="#000000" d="
  M 24.54 212.96
  C 34.04 235.70 47.12 255.11 65.82 271.66
  Q 65.91 271.74 65.83 271.84
  L 65.82 271.84
  Q 65.74 271.94 65.64 271.86
  Q 55.06 262.56 48.39 254.61
  C 38.11 242.33 30.66 228.70 24.66 213.90
  Q 24.49 213.49 24.54 212.96
  Z"
/>
<path fill="#000000" d="
  M 300.91 221.75
  L 300.97 223.26
  Q 301.00 223.80 300.48 223.95
  Q 300.16 224.05 299.74 223.97
  Q 300.06 222.51 300.91 221.75
  Z"
/>
<path fill="#000000" d="
  M 31.23 236.85
  L 33.77 240.24
  Q 34.05 240.61 34.08 241.08
  Q 34.16 242.09 35.15 242.38
  Q 35.56 242.50 35.82 242.85
  L 43.50 253.25
  Q 40.91 252.71 40.52 251.59
  Q 41.08 250.09 38.66 248.68
  Q 37.82 247.98 37.61 247.40
  Q 37.84 245.40 35.95 244.61
  L 31.23 236.85
  Z"
/>
<path fill="#cccccc" d="
  M 37.61 247.40
  L 35.95 244.61
  Q 37.84 245.40 37.61 247.40
  Z"
/>
<path fill="#cccccc" d="
  M 38.66 248.68
  Q 41.08 250.09 40.52 251.59
  L 38.66 248.68
  Z"
/>
<path fill="#000000" d="
  M 128.43 282.21
  L 125.98 281.41
  Q 128.04 280.65 128.43 282.21
  Z"
/>
<path fill="#000000" d="
  M 190.00 302.66
  Q 189.86 302.67 189.75 302.76
  Q 189.58 302.90 189.36 302.91
  C 182.94 303.25 175.96 304.30 170.18 304.39
  Q 127.64 305.01 90.86 283.44
  Q 90.69 283.34 90.79 283.16
  L 90.93 282.90
  A 0.03 0.02 -58.3 0 1 90.95 282.89
  C 111.84 294.44 135.07 301.65 158.90 303.11
  C 170.99 303.85 179.96 302.72 190.60 302.69
  Q 190.63 302.69 190.63 302.66
  Q 190.63 302.64 190.63 302.63
  Q 190.63 302.63 190.61 302.63
  Q 190.30 302.63 190.00 302.66
  Z"
/>
<path fill="#000000" d="
  M 142.21 284.86
  L 139.48 284.42
  Q 141.46 283.38 142.21 284.86
  Z"
/>
<path fill="#000000" d="
  M 153.09 285.74
  Q 150.45 285.99 147.29 285.13
  Q 150.97 284.76 153.09 285.74
  Z"
/>
<path fill="#000000" d="
  M 160.36 286.39
  L 157.95 285.96
  Q 158.68 284.64 159.94 285.10
  Q 160.71 285.38 160.36 286.39
  Z"
/>
<path fill="#000000" d="
  M 158.45 287.04
  C 157.70 288.27 156.35 288.39 155.51 287.13
  Q 156.87 286.84 158.45 287.04
  Z"
/>
<path fill="#000000" d="
  M 110.32 299.27
  Q 106.11 298.18 102.61 296.01
  Q 101.52 295.33 102.69 295.86
  L 110.32 299.27
  Z"
/>
<path fill="#000000" d="
  M 201.24 296.94
  Q 201.20 297.50 201.55 298.46
  L 185.08 300.38
  Q 184.20 300.48 185.07 300.30
  L 201.24 296.94
  Z"
/>
<path fill="#000000" d="
  M 110.32 299.27
  Q 111.94 299.46 113.67 300.13
  Q 133.95 307.96 156.18 309.30
  Q 166.49 309.92 175.76 309.17
  L 161.67 309.59
  Q 161.17 309.61 160.75 309.88
  Q 160.07 310.31 159.26 310.27
  Q 157.53 310.19 155.98 310.39
  Q 142.82 309.15 130.01 305.99
  Q 126.36 305.08 115.72 301.49
  Q 111.69 300.13 110.32 299.27
  Z"
/>
<path fill="#000000" d="
  M 110.30 301.98
  L 121.21 305.80
  Q 120.95 306.96 120.08 306.88
  Q 116.34 304.75 111.81 304.12
  Q 111.09 303.49 110.30 301.98
  Z"
/>
<path fill="#cccccc" d="
  M 120.08 306.88
  L 111.81 304.12
  Q 116.34 304.75 120.08 306.88
  Z"
/>
</svg>
