<?xml version="1.0" encoding="UTF-8" standalone="no"?>
<!DOCTYPE svg PUBLIC "-//W3C//DTD SVG 1.1//EN" "http://www.w3.org/Graphics/SVG/1.1/DTD/svg11.dtd">
<svg xmlns="http://www.w3.org/2000/svg" version="1.1" viewBox="0.00 0.00 306.00 305.00">
<path fill="#292f36" d="
  M 207.80 15.67
  Q 212.77 17.57 226.82 25.03
  C 232.81 28.22 238.84 32.47 244.25 36.70
  C 246.89 38.76 249.71 40.40 252.05 42.71
  Q 258.65 49.24 265.17 55.83
  Q 266.15 56.83 267.13 58.27
  C 270.41 63.08 274.19 67.43 276.60 71.66
  C 281.32 79.91 286.52 87.61 289.74 96.35
  C 293.71 107.15 296.13 114.61 297.81 124.64
  C 299.44 134.36 299.52 144.63 299.98 154.50
  Q 300.29 161.15 299.23 172.05
  C 297.87 185.95 294.02 198.66 288.88 211.43
  Q 286.46 217.45 279.17 229.68
  Q 273.93 238.48 270.44 243.03
  C 268.38 245.72 266.80 248.48 264.57 250.76
  C 258.41 257.06 252.43 263.28 245.41 268.60
  C 229.11 280.97 210.20 291.00 190.50 295.98
  C 158.66 304.04 125.99 301.63 95.82 289.43
  C 92.60 288.12 86.16 286.07 82.56 283.68
  Q 72.61 277.07 62.69 270.41
  Q 57.59 267.00 53.40 262.93
  C 44.60 254.39 37.42 246.75 30.57 237.07
  C 25.51 229.91 21.68 221.39 17.69 213.28
  Q 14.75 207.31 11.92 198.69
  C 4.01 174.61 2.91 147.41 7.74 122.72
  C 10.72 107.47 17.12 92.68 24.54 78.97
  Q 27.31 73.84 31.38 68.25
  C 38.34 58.71 44.85 51.33 52.77 43.69
  Q 57.49 39.14 63.98 34.75
  C 73.20 28.50 80.01 23.21 87.11 20.22
  C 97.47 15.86 110.19 10.61 119.49 9.04
  C 126.48 7.86 133.93 6.12 141.00 6.00
  C 146.52 5.91 152.35 4.78 157.25 5.32
  C 162.68 5.92 168.76 6.17 173.55 6.84
  Q 191.16 9.31 207.80 15.67
  Z
  M 111.00 282.53
  C 129.38 288.99 148.82 289.11 167.99 287.80
  Q 178.41 287.08 187.65 284.50
  C 200.62 280.88 213.95 275.66 225.22 268.16
  C 229.64 265.22 234.01 262.70 237.97 258.70
  Q 240.07 256.59 242.82 254.61
  C 250.19 249.30 255.09 242.19 260.19 236.12
  C 268.34 226.44 272.69 217.53 278.76 203.99
  C 287.21 185.17 289.95 163.96 288.79 143.50
  Q 287.53 121.22 278.34 100.92
  Q 274.94 93.42 268.95 81.93
  C 267.29 78.74 264.91 76.14 262.77 73.19
  Q 261.42 71.34 258.15 67.35
  C 253.70 61.94 250.09 56.67 243.90 52.17
  Q 240.65 49.80 237.50 46.90
  C 231.73 41.58 224.88 37.92 218.33 33.88
  C 213.05 30.63 207.46 28.98 202.13 26.49
  C 180.89 16.60 157.68 16.65 134.57 18.58
  C 118.49 19.92 102.49 25.77 88.30 33.28
  C 85.04 35.01 81.53 37.29 78.11 39.30
  C 72.76 42.44 68.33 46.62 63.32 50.32
  Q 59.39 53.23 49.48 64.02
  C 45.02 68.88 41.61 74.46 37.98 79.97
  Q 33.11 87.38 30.48 92.69
  Q 17.46 118.98 16.78 148.76
  Q 16.43 163.77 17.96 173.51
  Q 20.10 187.15 26.01 203.18
  C 29.92 213.78 35.74 222.70 42.00 232.05
  C 43.36 234.08 45.29 236.01 46.79 238.18
  C 51.55 245.13 58.89 252.17 65.78 256.97
  C 69.36 259.46 71.69 263.05 75.54 265.25
  C 83.06 269.57 89.79 274.10 98.41 277.65
  Q 106.27 280.87 111.00 282.53
  Z"
/>
<path fill="#292f36" d="
  M 70.61 107.24
  Q 69.72 107.58 69.72 108.75
  Q 69.50 161.95 69.48 215.16
  A 0.67 0.67 0.0 0 1 68.81 215.83
  L 59.60 215.83
  A 0.59 0.59 0.0 0 1 59.01 215.24
  L 58.99 91.29
  Q 58.99 90.17 60.11 90.09
  C 63.10 89.88 70.18 89.24 72.61 91.64
  Q 80.16 99.10 87.69 106.57
  C 89.68 108.54 93.08 110.17 95.44 112.53
  Q 110.46 127.53 125.45 142.55
  C 128.82 145.94 133.27 148.34 136.62 151.74
  Q 144.16 159.37 151.73 166.90
  Q 152.93 168.09 154.13 166.90
  Q 166.24 154.82 178.46 142.67
  C 180.94 140.21 184.42 138.48 186.71 136.21
  Q 204.49 118.49 222.20 100.70
  C 224.44 98.45 227.86 96.82 230.29 94.49
  Q 232.15 92.71 233.75 91.08
  A 2.92 2.92 0.0 0 1 235.85 90.19
  L 245.89 90.14
  A 1.00 0.99 89.7 0 1 246.89 91.14
  L 246.86 215.08
  A 0.69 0.69 0.0 0 1 246.17 215.77
  L 235.18 215.86
  A 0.68 0.68 0.0 0 1 234.50 215.18
  L 234.50 108.25
  A 1.18 1.17 -13.2 0 0 232.80 107.20
  C 230.60 108.29 229.09 110.66 227.38 112.38
  Q 214.14 125.73 200.84 139.01
  Q 198.85 141.00 194.02 144.79
  Q 190.19 147.79 185.62 152.37
  Q 170.45 167.58 155.05 182.95
  A 2.98 2.98 0.0 0 1 150.83 182.95
  Q 142.59 174.71 135.04 167.21
  C 132.20 164.39 128.79 162.76 126.10 160.07
  Q 108.13 142.08 90.11 124.14
  C 88.20 122.24 84.58 120.39 82.18 118.08
  Q 76.81 112.93 71.80 107.52
  A 1.10 1.09 -31.7 0 0 70.61 107.24
  Z"
/>
<path fill="#292f36" d="
  M 152.93 122.21
  Q 153.49 122.05 154.02 121.53
  Q 162.85 112.91 171.58 104.19
  Q 173.70 102.08 177.71 99.19
  Q 182.23 95.93 185.90 91.69
  C 187.98 89.29 198.84 90.00 202.32 90.00
  A 1.03 1.03 0.0 0 1 203.12 91.68
  Q 202.95 91.90 202.66 92.17
  Q 196.38 98.14 190.28 104.29
  C 187.52 107.07 184.11 108.71 181.36 111.43
  Q 168.54 124.12 155.49 137.29
  Q 152.98 139.83 150.46 137.31
  Q 143.34 130.20 136.54 123.42
  C 133.75 120.64 130.28 119.09 127.58 116.35
  Q 115.36 103.95 102.59 91.52
  A 0.69 0.69 0.0 0 1 103.01 90.34
  C 106.81 89.96 117.04 88.94 119.95 91.83
  Q 126.74 98.62 133.62 105.33
  C 136.29 107.94 139.55 109.49 142.15 112.07
  Q 147.12 117.01 152.10 121.99
  A 0.86 0.85 -30.0 0 0 152.93 122.21
  Z"
/>
<path fill="#292f36" d="
  M 103.51 166.28
  L 103.49 215.23
  A 0.54 0.54 0.0 0 1 102.95 215.77
  L 91.62 215.84
  A 0.54 0.54 0.0 0 1 91.08 215.30
  L 91.05 166.26
  A 0.54 0.54 0.0 0 1 91.59 165.72
  L 102.97 165.74
  A 0.54 0.54 0.0 0 1 103.51 166.28
  Z"
/>
<rect fill="#292f36" x="202.43" y="165.72" width="10.48" height="50.04" rx="0.69"/>
</svg>
